<svg width="50" height="50" viewBox="0 0 50 50" fill="none" xmlns="http://www.w3.org/2000/svg">
<path d="M25 0C11.215 0 0 11.215 0 25C0 38.785 11.215 50 25 50C38.785 50 50 38.785 50 25C50 11.215 38.785 0 25 0ZM26.6429 46.6524V43.3097C26.6429 42.4024 25.9073 41.6668 25 41.6668C24.0927 41.6668 23.3571 42.4024 23.3571 43.3097V46.6524C12.6908 45.8507 4.14929 37.3092 3.34756 26.6429H6.6903C7.59761 26.6429 8.33319 25.9073 8.33319 25C8.33319 24.0927 7.59761 23.3571 6.6903 23.3571H3.34756C4.14929 12.6908 12.6908 4.14929 23.3571 3.34756V6.6903C23.3571 7.59761 24.0927 8.33319 25 8.33319C25.9073 8.33319 26.6429 7.59761 26.6429 6.6903V3.34756C37.3092 4.14929 45.8507 12.6908 46.6524 23.3571H43.3097C42.4024 23.3571 41.6668 24.0927 41.6668 25C41.6668 25.9073 42.4024 26.6429 43.3097 26.6429H46.6524C45.8505 37.3092 37.3092 45.8505 26.6429 46.6524Z" fill="white"/>
<path d="M35.6142 23.357H26.4348L19.0339 11.8445C18.543 11.0811 17.5266 10.8605 16.7634 11.3509C16.0003 11.8416 15.7792 12.858 16.2699 13.6214L24.1558 25.8883C24.1582 25.8921 24.1613 25.8951 24.1637 25.8991C24.1987 25.9525 24.2364 26.004 24.2772 26.0529C24.2875 26.0653 24.2988 26.0763 24.3098 26.0886C24.3405 26.123 24.372 26.1565 24.4053 26.1882C24.4228 26.2049 24.4406 26.2209 24.4585 26.2366C24.4892 26.2634 24.521 26.2888 24.5534 26.3131C24.5707 26.326 24.5873 26.3396 24.6049 26.3516C24.6546 26.386 24.7058 26.4182 24.7593 26.4469C24.7663 26.4507 24.7737 26.4537 24.781 26.4574C24.8294 26.4826 24.8789 26.5052 24.9299 26.5256C24.9455 26.5317 24.9615 26.5372 24.9772 26.5429C25.0208 26.5586 25.0651 26.5727 25.1104 26.5849C25.128 26.5895 25.1453 26.5941 25.1628 26.5983C25.2081 26.609 25.2541 26.6171 25.3006 26.6239C25.3174 26.6263 25.3339 26.6296 25.3507 26.6316C25.4086 26.6382 25.467 26.6419 25.5264 26.6423C25.5308 26.6423 25.535 26.643 25.5391 26.643C25.54 26.643 25.5411 26.6428 25.5422 26.6428H35.614C36.5213 26.6428 37.2569 25.9072 37.2569 24.9999C37.2571 24.0926 36.5215 23.357 35.6142 23.357Z" fill="white"/>
</svg>
