<svg width="30" height="28" viewBox="0 0 30 28" fill="none" xmlns="http://www.w3.org/2000/svg">
<path d="M2.22238 0.666504C1.60888 0.666504 1.08513 0.883956 0.65102 1.31752C0.217149 1.75164 0 2.27545 0 2.88889C0 3.29393 0.101247 3.66438 0.303923 3.99992C0.506295 4.33559 0.775496 4.60175 1.11104 4.79859V26.778C1.11104 26.9401 1.16303 27.0732 1.26732 27.1773C1.37142 27.2815 1.50441 27.3333 1.66665 27.3333H2.77769C2.93981 27.3333 3.07298 27.2815 3.17702 27.1773C3.28119 27.0732 3.33318 26.9401 3.33318 26.778V4.79859C3.66884 4.60175 3.93792 4.33559 4.14042 3.99992C4.34303 3.66438 4.44422 3.29375 4.44422 2.88889C4.44422 2.27563 4.22731 1.75188 3.7935 1.31752C3.35945 0.883774 2.83564 0.666504 2.22238 0.666504Z" fill="black"/>
<path d="M29.4627 3.04503C29.1037 2.83682 28.7451 2.82538 28.3858 3.01049C28.282 3.06856 28.1023 3.16677 27.8478 3.30565C25.672 4.60192 23.8782 5.25014 22.466 5.25014C21.8756 5.25014 21.3603 5.14014 20.9207 4.92031C19.6247 4.28376 18.415 3.78598 17.2923 3.42709C16.1696 3.06856 14.9601 2.88905 13.6639 2.88905C12.819 2.88905 11.9219 2.99905 10.973 3.219C10.0239 3.43882 9.14115 3.72529 8.32522 4.07811C7.50935 4.43116 6.84939 4.73205 6.34614 4.98094C5.84233 5.22983 5.38809 5.47556 4.98316 5.71873C4.62433 5.95017 4.44482 6.26844 4.44482 6.67361V19.5555C4.44482 19.9837 4.63005 20.3079 5.00037 20.5277C5.18554 20.6205 5.37076 20.6665 5.55598 20.6665C5.76419 20.6665 5.95532 20.6145 6.12874 20.5106C7.22823 19.8393 8.55046 19.2487 10.0956 18.7395C11.6409 18.2303 13.0039 17.9756 14.1844 17.9756C14.8554 17.9756 15.5155 18.0565 16.1635 18.2187C16.8115 18.3806 17.3384 18.5487 17.7434 18.722C18.1481 18.8958 18.721 19.1734 19.4621 19.5555L19.9482 19.7985C20.7581 20.2039 21.6725 20.4066 22.6907 20.4066C24.4387 20.4066 26.574 19.7352 29.0972 18.3926C29.1783 18.3464 29.2766 18.2944 29.3923 18.2364C29.7973 18.028 30.0001 17.6984 30.0001 17.2469V3.99991C30.0004 3.59486 29.821 3.27671 29.4627 3.04503ZM27.7779 16.5873C25.7756 17.6519 24.08 18.1842 22.6912 18.1844C22.0315 18.1844 21.4472 18.057 20.9375 17.8025L20.4517 17.5596C19.8149 17.2469 19.3373 17.0185 19.0193 16.8736C18.7012 16.7288 18.2552 16.5495 17.6827 16.3355C17.1096 16.1214 16.5426 15.9709 15.9814 15.8841C15.4202 15.7973 14.8211 15.754 14.1843 15.754C12.0082 15.754 9.50278 16.4079 6.6669 17.716V7.3163C9.32911 5.84619 11.6614 5.11125 13.6636 5.11125C14.7516 5.11125 15.7816 5.27045 16.7536 5.58878C17.7256 5.90693 18.7907 6.34981 19.9483 6.91673C20.677 7.28711 21.5163 7.47234 22.4653 7.47234C24.0509 7.47234 25.8219 6.94555 27.778 5.89246V16.5873H27.7779Z" fill="black"/>
</svg>
