<svg width="25" height="25" viewBox="0 0 25 25" fill="none" xmlns="http://www.w3.org/2000/svg">
<path fill-rule="evenodd" clip-rule="evenodd" d="M12.5 24.875C5.66548 24.875 0.125 19.3345 0.125 12.5C0.125 5.66548 5.66548 0.125 12.5 0.125C19.3345 0.125 24.875 5.66548 24.875 12.5C24.875 19.3345 19.3345 24.875 12.5 24.875ZM20.8244 18.2652C21.9597 16.6291 22.625 14.6422 22.625 12.5C22.625 6.90812 18.0919 2.375 12.5 2.375C6.90812 2.375 2.375 6.90812 2.375 12.5C2.375 14.6423 3.04031 16.6291 4.17557 18.2652C5.4417 16.5928 8.41693 15.875 12.5 15.875C16.5831 15.875 19.5583 16.5928 20.8244 18.2652ZM19.2103 20.0822C18.881 18.8983 16.5156 18.125 12.5 18.125C8.48445 18.125 6.119 18.8983 5.78973 20.0822C7.57621 21.6644 9.92593 22.625 12.5 22.625C15.0741 22.625 17.4238 21.6644 19.2103 20.0822ZM12.5 5.75C9.77649 5.75 8 7.72523 8 10.25C8 14.1058 9.98097 15.875 12.5 15.875C14.9953 15.875 17 14.1646 17 10.475C17 7.91178 15.216 5.75 12.5 5.75ZM10.25 10.25C10.25 12.8029 11.1705 13.625 12.5 13.625C13.8249 13.625 14.75 12.8357 14.75 10.475C14.75 9.06922 13.8676 8 12.5 8C11.0755 8 10.25 8.9178 10.25 10.25Z" fill="#979797"/>
</svg>
