<svg width="24" height="24" viewBox="0 0 24 24" fill="none" xmlns="http://www.w3.org/2000/svg">
<path fill-rule="evenodd" clip-rule="evenodd" d="M10.6659 7.72763C11.2704 6.91306 11.4871 6.05456 10.8035 5.29677C9.2694 3.15013 8.23767 1.82266 7.59052 1.18337C6.3602 -0.0319806 4.3363 0.132415 3.27076 1.18234C2.69844 1.74626 2.50469 1.93991 1.91704 2.53679C-1.35622 5.81181 0.639988 12.7351 5.94662 18.0469C11.2521 23.3576 18.1747 25.3548 21.4548 22.0729C21.9971 21.5501 22.4562 21.0908 22.8183 20.7081C23.8625 19.6044 24.021 17.6697 22.8114 16.4129C22.1912 15.7685 20.9254 14.7866 18.6884 13.1865C18.0033 12.5739 17.191 12.7067 16.4462 13.1953C16.088 13.4303 15.8273 13.668 15.335 14.1608L14.441 15.0553C14.3233 15.1731 12.7245 14.3724 11.1725 12.8189C9.61967 11.2645 8.81955 9.66565 8.93674 9.54847C9.17841 9.30682 9.47659 9.00847 9.83131 8.65341C9.98749 8.49707 10.0622 8.42137 10.1579 8.32073C10.3574 8.11105 10.5226 7.92076 10.6659 7.72763ZM16.09 16.7052L16.9842 15.8106C17.2551 15.5394 17.4307 15.3726 17.5735 15.2576C19.5331 16.6649 20.668 17.5497 21.1316 18.0314C21.4099 18.3206 21.3666 18.8482 21.1247 19.104C20.7899 19.4579 20.3549 19.8931 19.821 20.408C17.7 22.53 12.1119 20.9177 7.59598 16.3974C3.07867 11.8756 1.4672 6.28667 3.57223 4.18048C4.1575 3.58605 4.34294 3.40072 4.90708 2.84484C5.1186 2.63642 5.69478 2.58962 5.95209 2.84381C6.45033 3.33599 7.37457 4.5194 8.73416 6.4133C8.66378 6.50068 8.57587 6.59943 8.46889 6.71186C8.39037 6.79439 8.32495 6.8607 8.18194 7.00385C7.8275 7.35864 7.5296 7.65671 7.28825 7.89803C5.76791 9.41824 7.06269 12.0056 9.52314 14.4684C11.9819 16.9296 14.5702 18.2258 16.09 16.7052Z" fill="#979797"/>
</svg>
