<svg width="123" height="123" viewBox="0 0 123 123" fill="none" xmlns="http://www.w3.org/2000/svg">
<g clip-path="url(#clip0)">
<path d="M61.5 123C95.4655 123 123 95.4655 123 61.5C123 27.5345 95.4655 0 61.5 0C27.5345 0 0 27.5345 0 61.5C0 95.4655 27.5345 123 61.5 123Z" fill="#7AA5DA"/>
<path d="M122.982 60.0773L95.6812 32.8223L51.2119 87.0263L83.2313 119.046C106.471 110.265 123 87.8143 123 61.5002C123 61.0243 122.993 60.5501 122.982 60.0773Z" fill="#5786B5"/>
<path d="M92.1817 32.0759C94.6336 31.1193 97.168 33.2646 96.6297 35.8404L85.6341 88.3991C85.1205 90.8632 82.2257 91.9731 80.1964 90.4822L63.5977 78.2982L55.1369 86.9373C53.6501 88.4532 51.0865 87.836 50.4487 85.8149L44.3443 66.4371L27.9815 61.6041C25.8321 60.9704 25.7079 57.9804 27.791 57.1646L92.1817 32.0759ZM84.1101 43.7381C84.8265 43.1044 83.9941 41.9863 83.1823 42.4915L47.8642 64.3954C47.243 64.7805 46.9574 65.5384 47.1767 66.2382L51.9932 87.3885C52.0885 87.7116 52.5522 87.6659 52.5937 87.3306L53.6705 71.2123C53.7118 70.8147 53.9023 70.4502 54.2007 70.1853L84.1101 43.7381Z" fill="white" fill-opacity="0.68"/>
<path d="M83.1832 42.4917C83.995 41.9864 84.8274 43.1045 84.111 43.7382L54.2018 70.1854C53.9037 70.4504 53.7132 70.8148 53.6717 71.2124L52.5949 87.3307C52.5536 87.666 52.0897 87.7117 51.9943 87.3886L47.1779 66.2383C46.9583 65.5385 47.2442 64.7806 47.8654 64.3955L83.1832 42.4917Z" fill="#9EC2E5"/>
<path d="M52.1678 87.6083C51.3892 87.3308 50.7307 86.7096 50.4492 85.8149L44.3448 66.4371L27.982 61.6041C25.8326 60.9704 25.7084 57.9804 27.7915 57.1646L92.182 32.0762C93.7639 31.459 95.3833 32.1341 96.1826 33.385C96.0334 33.1572 95.8554 32.9461 95.6567 32.7596L51.973 68.4212V69.9825L51.7327 69.8086L51.973 79.6404V87.5257C52.0352 87.5547 52.1013 87.5795 52.1676 87.6001V87.6083H52.1678Z" fill="white" fill-opacity="0.68"/>
<path d="M96.7004 34.9584C96.7129 35.2399 96.6923 35.5381 96.6301 35.8405L85.6345 88.3992C85.1209 90.8633 82.2261 91.9732 80.1968 90.4823L63.5981 78.2983L51.9731 69.9824V68.4211L95.6569 32.7593C95.8555 32.9457 96.0338 33.1569 96.1827 33.3846C96.2118 33.4343 96.2406 33.4797 96.2697 33.5254C96.2945 33.5751 96.3235 33.6248 96.3485 33.6702C96.3732 33.72 96.3982 33.7697 96.4189 33.8194C96.4436 33.8732 96.4645 33.923 96.4852 33.9768C96.5018 34.0224 96.5224 34.0719 96.539 34.126C96.5928 34.2874 96.6341 34.4532 96.6632 34.6271C96.6798 34.7347 96.6923 34.8426 96.7004 34.9584Z" fill="#E6E6E6"/>
<path d="M63.5983 78.2986L55.1375 86.9377C55.0671 87.0081 54.9927 87.0785 54.9179 87.1407C54.8435 87.2029 54.7688 87.2567 54.6902 87.3105C54.6861 87.3146 54.6861 87.3146 54.6861 87.3146C54.5288 87.4182 54.3673 87.5051 54.1975 87.5755C54.1105 87.6087 54.0276 87.6418 53.9407 87.6625C53.5803 87.7701 53.2118 87.7992 52.8474 87.7619C52.7522 87.7538 52.6569 87.7372 52.5658 87.7206C52.5533 87.7206 52.5411 87.7165 52.5286 87.7124C52.4375 87.6877 52.3462 87.6627 52.2552 87.6336C52.2261 87.6255 52.1973 87.6171 52.1682 87.6005L51.9736 79.6408V69.9829L63.5983 78.2986Z" fill="#E6E6E6"/>
<path d="M54.9172 87.1401C54.8427 87.2024 54.768 87.2603 54.6895 87.3141V87.31C54.7682 87.2562 54.8427 87.2024 54.9172 87.1401Z" fill="#54647B"/>
<path d="M54.6901 87.3101V87.3151C54.6901 87.3151 54.6901 87.3101 54.6851 87.3151C54.6851 87.3151 54.6851 87.3151 54.6901 87.3101Z" fill="#54647B"/>
<path d="M54.1968 87.5753C54.3666 87.505 54.5281 87.418 54.6854 87.3145C54.5281 87.4178 54.3623 87.5047 54.1968 87.5753Z" fill="#54647B"/>
<path d="M52.8467 87.7624C53.2111 87.7999 53.5796 87.7706 53.94 87.6621C53.6791 87.7457 53.4098 87.7832 53.1407 87.7832C53.0578 87.7832 52.975 87.7791 52.8964 87.7706C52.8798 87.7709 52.8633 87.7709 52.8467 87.7624Z" fill="#54647B"/>
<path d="M53.1403 87.7821C53.0574 87.7821 52.9746 87.778 52.896 87.7695C52.9746 87.778 53.0574 87.7821 53.1403 87.7821Z" fill="white" fill-opacity="0.68"/>
<path d="M52.8466 87.7615C52.8632 87.7698 52.8798 87.7698 52.8963 87.7698C52.8094 87.7656 52.7306 87.753 52.6479 87.7363C52.714 87.7492 52.7803 87.7574 52.8466 87.7615Z" fill="white" fill-opacity="0.68"/>
<path d="M52.847 87.7624C52.7807 87.7582 52.7144 87.7498 52.6483 87.7374C52.6192 87.7333 52.5904 87.7292 52.5654 87.7207C52.6565 87.7374 52.7516 87.7541 52.847 87.7624Z" fill="#54647B"/>
<path d="M52.2549 87.6328C52.3459 87.6621 52.4372 87.6871 52.5283 87.7122C52.491 87.704 52.4538 87.6955 52.4166 87.6873C52.4 87.6832 52.3834 87.6791 52.3709 87.6706C52.3334 87.6621 52.2921 87.6495 52.2549 87.6328Z" fill="#54647B"/>
<path d="M52.4165 87.688C52.454 87.6962 52.4916 87.7047 52.5291 87.7129C52.4916 87.7088 52.454 87.7006 52.4165 87.688Z" fill="white" fill-opacity="0.68"/>
<path d="M52.255 87.6336C52.2922 87.6503 52.3338 87.6629 52.371 87.6712C52.3088 87.6586 52.2468 87.6377 52.1846 87.6128C52.2093 87.621 52.23 87.6295 52.255 87.6336Z" fill="white" fill-opacity="0.68"/>
<path d="M52.2552 87.6333C52.2302 87.6292 52.2091 87.6207 52.1842 87.6125C52.1801 87.6166 52.1716 87.6124 52.1675 87.6083V87.6001C52.1965 87.6166 52.2258 87.6248 52.2552 87.6333Z" fill="#54647B"/>
<path d="M51.9731 79.6406L52.1677 87.6003C52.1014 87.5797 52.0351 87.5547 51.9731 87.5258V79.6406Z" fill="#E6E6E6"/>
<path d="M51.9731 69.9825V79.6404L51.7329 69.8086L51.9731 69.9825Z" fill="#54647B"/>
<path d="M84.1105 43.7386L54.2014 70.1857C53.9032 70.4507 53.7127 70.8151 53.6712 71.2127L52.5964 87.3325C52.555 87.6678 52.0911 87.7135 51.9917 87.3904L47.1774 66.2389C46.9578 65.5391 47.2437 64.7812 47.8649 64.3961L83.183 42.4922C83.9947 41.9868 84.8272 43.1051 84.1105 43.7386Z" fill="#ADBCC9"/>
</g>
<defs>
<clipPath id="clip0">
<rect width="123" height="123" fill="white"/>
</clipPath>
</defs>
</svg>
