<svg width="30" height="26" viewBox="0 0 30 26" fill="none" xmlns="http://www.w3.org/2000/svg">
<path d="M24.0471 2.31743C24.0665 1.39788 24.0316 0.816849 24.0316 0.816849L15.0456 0.810059H15H14.9544L5.96741 0.816849C5.96741 0.816849 5.93346 1.39788 5.95286 2.31743H0V3.29907C0 3.52313 0.0378298 8.80864 3.29992 11.7041C4.66083 12.9117 6.35832 13.5189 8.35942 13.5199C8.66205 13.5199 8.97342 13.4995 9.28867 13.4724C10.4255 15.0292 11.7389 16.1195 13.2162 16.6627V20.9743H8.87933V23.6748H7.44665V25.1889H14.9544H15.0456H22.5534V23.6757H21.1197V20.9753H16.7829V16.6637C18.2592 16.1205 19.5735 15.0302 20.7104 13.4733C21.0275 13.5005 21.3389 13.5199 21.6416 13.5199C23.6417 13.518 25.3392 12.9117 26.7001 11.7031C29.9622 8.80767 30 3.52216 30 3.2981V2.31743H24.0471ZM4.60942 10.2403C2.74606 8.59136 2.1951 5.76867 2.03214 4.2807H6.06538C6.2361 6.13436 6.63767 8.44392 7.56402 10.4741C7.73377 10.8466 7.91225 11.1997 8.09461 11.545C6.7046 11.4916 5.53479 11.0581 4.60942 10.2403ZM25.3906 10.2403C24.4662 11.059 23.2954 11.4916 21.9064 11.545C22.0887 11.2006 22.2672 10.8466 22.437 10.4741C23.3633 8.44392 23.7649 6.13436 23.9346 4.2807H27.9679C27.8049 5.7677 27.2549 8.59039 25.3906 10.2403Z" fill="black"/>
</svg>
