<svg width="122" height="122" viewBox="0 0 122 122" fill="none" xmlns="http://www.w3.org/2000/svg">
<path d="M61 122C94.6894 122 122 94.6894 122 61C122 27.3106 94.6894 0 61 0C27.3106 0 0 27.3106 0 61C0 94.6894 27.3106 122 61 122Z" fill="#D22215"/>
<path d="M91.7041 40.5889C89.8748 41.1472 87.9674 41.6268 86.0571 42.1046C72.5015 44.9799 54.4274 37.1752 46.6227 49.9092C40.1136 60.0348 38.0584 72.7051 30.6538 81.7586L70.2044 121.309C96.5274 117.325 117.33 96.5194 121.31 70.1953L91.7041 40.5889Z" fill="#A81411"/>
<path d="M81.4088 36.2979H40.5917C32.5835 36.2979 26.0918 42.7898 26.0918 50.7977V71.2023C26.0918 79.2104 32.5838 85.7022 40.5917 85.7022H81.4088C89.417 85.7022 95.9087 79.2102 95.9087 71.2023V50.7977C95.9087 42.7898 89.4167 36.2979 81.4088 36.2979ZM71.6023 61.9927L52.5112 71.0979C52.0023 71.3407 51.4144 70.9702 51.4144 70.4066V51.6267C51.4144 51.0549 52.0178 50.6843 52.5272 50.9429L71.6183 60.6173C72.1868 60.9049 72.1766 61.7191 71.6023 61.9927Z" fill="white" fill-opacity="0.68"/>
<path d="M81.4082 36.2979H60.5889V55.028L71.6182 60.6168C72.1862 60.9047 72.176 61.7187 71.6017 61.9924L60.5889 67.2451V85.7022H81.4082C89.4164 85.7022 95.9081 79.2102 95.9081 71.2023V50.7977C95.9081 42.7898 89.4161 36.2979 81.4082 36.2979Z" fill="#E6E6E6"/>
</svg>
