<svg width="50" height="50" viewBox="0 0 50 50" fill="none" xmlns="http://www.w3.org/2000/svg">
<path d="M43.1473 25.2617H40.5973C40.5973 16.9396 33.8288 10.1727 25.5112 10.1727L25.5097 7.62567C35.2369 7.62107 43.1473 15.5345 43.1473 25.2617ZM25.5097 12.0247L25.5082 14.5717C31.4057 14.5717 36.1967 19.3672 36.1936 25.2602L38.7436 25.2587C38.7436 17.9621 32.8109 12.0247 25.5097 12.0247ZM25 0C11.2135 0 0 11.2135 0 25.0015C0 38.7865 11.2135 50 25 50C25.8526 50 26.5414 49.3112 26.5414 48.4602C26.5414 47.6045 25.8526 46.9142 25 46.9142C12.914 46.9142 3.08425 37.0814 3.08425 25.0015C3.08425 12.9156 12.914 3.08425 25 3.08425C37.086 3.08425 46.9142 12.9171 46.9142 25.0015C46.9142 30.0511 44.2264 35.0548 40.3799 37.1763C38.9824 37.9447 37.4671 38.3258 35.8507 38.3411C36.8212 37.764 37.6615 36.9834 38.286 36.0007C38.4084 35.8155 38.5707 35.6517 38.6503 35.4512C39.1523 34.2436 39.1967 32.8736 39.4998 31.5971C39.8717 29.9685 32.37 26.7863 31.718 28.8205C31.4823 29.5736 31.121 31.9552 30.6481 32.5828C30.2271 33.143 29.1894 32.8767 28.5404 32.3257C26.8306 30.8685 24.9219 28.7271 23.2474 27.0342L23.2505 27.0327C23.2076 26.9883 23.1556 26.9393 23.1097 26.8919C23.0622 26.8475 23.0148 26.797 22.9673 26.7511V26.7541C21.2744 25.0765 19.1315 23.1724 17.6759 21.4596C17.1248 20.8106 16.8585 19.7729 17.4187 19.3519C18.0463 18.8759 20.428 18.5208 21.181 18.282C23.2107 17.633 20.0331 10.1267 18.4014 10.5002C17.1279 10.7987 15.758 10.8477 14.5503 11.3467C14.3452 11.4339 14.186 11.5916 14.0008 11.714C9.71653 14.4294 9.16396 21.0234 13.3457 25.9368C14.9391 27.8164 16.6014 29.6348 18.3126 31.4103L18.3034 31.4165C18.3509 31.4639 18.3999 31.5083 18.4488 31.5542C18.4948 31.6017 18.5392 31.6491 18.5835 31.6996L18.5927 31.6904C20.3683 33.4017 22.4729 35.9227 25.8924 38.2033C33.091 43.0111 38.6151 41.6687 41.8692 39.884C47.4867 36.7905 50 30.1828 50 25.0077C50 11.2135 38.785 0 25 0Z" fill="white"/>
</svg>
