<svg width="44" height="50" viewBox="0 0 44 50" fill="none" xmlns="http://www.w3.org/2000/svg">
<path d="M33.7574 20.3767C33.7574 13.9224 28.483 8.67139 22 8.67139C15.5169 8.67139 10.2426 13.9224 10.2426 20.3767C10.2426 26.831 15.5169 32.082 22 32.082C28.483 32.0819 33.7574 26.8309 33.7574 20.3767ZM13.2129 20.3767C13.2129 15.5602 17.1548 11.6417 22 11.6417C26.8452 11.6417 30.7871 15.5602 30.7871 20.3767C30.7871 25.1932 26.8452 29.1117 22 29.1117C17.1548 29.1117 13.2129 25.1932 13.2129 20.3767Z" fill="white"/>
<path d="M23.7934 24.2702C24.3609 24.8379 25.3248 24.8392 25.8937 24.2702C26.4738 23.6901 26.4738 22.7499 25.8937 22.1698L24.1004 20.3765L25.8701 18.6068C26.4502 18.0267 26.4502 17.0865 25.8701 16.5064C25.2899 15.9263 24.3497 15.9263 23.7697 16.5064L22 18.2762L20.2067 16.4829C19.6266 15.9028 18.6864 15.9028 18.1063 16.4829C17.5264 17.063 17.5264 18.0032 18.1063 18.5833L19.8997 20.3766L18.13 22.1463C17.55 22.7263 17.55 23.6666 18.13 24.2466C18.6977 24.8143 19.6613 24.8157 20.2304 24.2466L22 22.4768L23.7934 24.2702Z" fill="white"/>
<path d="M32.056 46.791H25.7856C27.6665 44.9837 30.2696 42.3665 32.8968 39.3521C39.6272 31.6306 43.0397 25.3116 43.0397 20.5709C43.0397 9.22809 33.6013 0 22.0001 0C10.3988 0 0.960449 9.22809 0.960449 20.5709C0.960449 25.3116 4.37295 31.6304 11.1033 39.3521C13.7305 42.3665 16.3336 44.9837 18.2145 46.791H6.27184C5.45166 46.791 4.78669 47.4559 4.78669 48.2761C4.78669 49.0963 5.45166 49.7613 6.27184 49.7613H32.056C32.8762 49.7613 33.5411 49.0963 33.5411 48.2761C33.5411 47.4559 32.8762 46.791 32.056 46.791ZM13.3213 37.3764C7.17802 30.3233 3.93075 24.512 3.93075 20.5709C3.93075 10.866 12.0366 2.9703 22.0001 2.9703C31.9635 2.9703 40.0694 10.866 40.0694 20.5709C40.0694 24.512 36.8222 30.3233 30.6788 37.3764C27.1897 41.3822 23.6611 44.7415 22.0001 46.272C20.339 44.7415 16.8104 41.3822 13.3213 37.3764Z" fill="white"/>
<path d="M37.4807 50C38.4377 50 39.2134 49.2282 39.2134 48.2761C39.2134 47.3241 38.4377 46.5522 37.4807 46.5522C36.5238 46.5522 35.748 47.3241 35.748 48.2761C35.748 49.2282 36.5238 50 37.4807 50Z" fill="white"/>
</svg>
