<svg width="50" height="50" viewBox="0 0 50 50" fill="none" xmlns="http://www.w3.org/2000/svg">
<g clip-path="url(#clip0)">
<path d="M42.8982 7.10182C38.3183 2.5219 32.2304 0 25.753 0C25.7526 0 25.7511 0 25.7507 0C22.5472 0.00038147 19.4252 0.620651 16.4722 1.84402C13.5189 3.0674 10.873 4.83627 8.60749 7.10182C4.02794 11.6814 1.50605 17.7704 1.50605 24.247C1.50605 28.1094 2.43798 31.9477 4.2038 35.3676L0.12818 47.0108C-0.159067 47.8321 0.0442562 48.7247 0.659948 49.3401C1.09063 49.7711 1.65749 50 2.24038 50C2.49024 50 2.74277 49.958 2.9892 49.8718L14.6324 45.7966C18.0523 47.5624 21.8906 48.4943 25.753 48.4943C32.2296 48.4943 38.3183 45.9721 42.8982 41.3925C47.4777 36.813 50 30.724 50 24.2474C50 17.7704 47.4781 11.6814 42.8982 7.10182ZM40.8245 39.3188C36.7989 43.3449 31.4461 45.5616 25.753 45.5616C22.2702 45.5616 18.8103 44.7002 15.7471 43.0698C15.1917 42.7746 14.5351 42.7238 13.9458 42.9302L3.36762 46.6324L7.07017 36.0542C7.27654 35.4641 7.22542 34.8076 6.93017 34.2525C5.30015 31.1901 4.43841 27.7302 4.43841 24.247C4.43841 18.5539 6.65551 13.2011 10.6812 9.17549C14.7064 5.15022 20.0584 2.93312 25.7511 2.93236H25.753C31.4465 2.93236 36.7989 5.14946 40.8245 9.17549C44.8505 13.2011 47.0676 18.5535 47.0676 24.247C47.0676 29.9404 44.8505 35.2932 40.8245 39.3188Z" fill="white"/>
<path d="M34.7641 26.4129C33.6487 25.2975 31.8337 25.2975 30.7182 26.4129L29.4983 27.6329C26.469 25.9823 24.0177 23.5309 22.3667 20.5017L23.5867 19.2818C24.7025 18.1663 24.7025 16.3513 23.5867 15.2359L20.2991 11.9484C19.1837 10.833 17.3687 10.833 16.2533 11.9484L13.6234 14.5782C12.117 16.0847 12.0419 18.6745 13.4117 21.8708C14.6011 24.646 16.7778 27.6962 19.5408 30.4592C22.3038 33.2222 25.354 35.3988 28.1292 36.5883C29.6478 37.2391 31.0291 37.5637 32.2227 37.5637C33.5415 37.5637 34.631 37.1673 35.4218 36.3766L38.0516 33.7463V33.7467C38.5921 33.2062 38.8897 32.4879 38.8897 31.7238C38.8897 30.9593 38.5921 30.241 38.0516 29.7008L34.7641 26.4129ZM33.3481 34.3029C32.9182 34.7328 31.596 34.8835 29.2847 33.8932C26.844 32.8472 24.1199 30.891 21.6145 28.3855C19.109 25.88 17.1532 23.1563 16.1072 20.7157C15.1165 18.4044 15.2672 17.0818 15.6971 16.6519L18.2766 14.0724L21.4626 17.2588L19.9356 18.7862C19.2451 19.4767 19.0784 20.5238 19.5213 21.392C21.529 25.3288 24.6712 28.471 28.6079 30.4787C29.4765 30.9215 30.5237 30.7552 31.2141 30.0644L32.7412 28.5374L35.9276 31.7238L33.3481 34.3029Z" fill="white"/>
</g>
<defs>
<clipPath id="clip0">
<rect width="50" height="50" fill="white"/>
</clipPath>
</defs>
</svg>
