<svg width="123" height="123" viewBox="0 0 123 123" fill="none" xmlns="http://www.w3.org/2000/svg">
<g clip-path="url(#clip0)">
<path d="M61.5007 123C95.4661 123 123.001 95.4651 123.001 61.4998C123.001 27.5344 95.4661 0 61.5007 0C27.5354 0 0.000976562 27.5344 0.000976562 61.4998C0.000976562 95.4651 27.5354 123 61.5007 123Z" fill="#4E598F"/>
<path d="M122.902 58.0643L93.9357 29.0885C93.4557 29.2339 92.2584 28.6768 91.732 28.7825C79.3079 30.8533 67.2979 28.7825 55.2877 32.0955C49.4896 33.7522 49.0755 40.7925 47.0049 45.348C44.106 53.6308 44.5202 62.7419 40.7927 70.6105C38.308 75.9944 32.5099 79.3074 30.4391 85.5196C29.7485 88.1105 29.7893 91.3763 29.0083 93.8533L58.0717 122.903C59.2068 122.965 60.3491 123 61.4996 123C95.4648 123 122.999 95.465 122.999 61.4999C123 60.3468 122.965 59.2016 122.902 58.0643Z" fill="#364270"/>
<path d="M87.215 26.2974H35.7847C30.5454 26.2974 26.2979 30.5447 26.2979 35.7842V87.2146C26.2979 92.4543 30.5452 96.7014 35.7847 96.7014H61.1495L61.1934 71.5436H54.6567C53.8072 71.5436 53.1178 70.8566 53.1149 70.0071L53.0829 61.8971C53.0796 61.0435 53.7717 60.349 54.6252 60.349H61.1504V52.5131C61.1504 43.4198 66.7042 38.4683 74.8159 38.4683H81.4727C82.3239 38.4683 83.015 39.1587 83.015 40.0106V46.8484C83.015 47.7002 82.3246 48.3907 81.4737 48.3907L77.3883 48.3931C72.9769 48.3931 72.1221 50.4891 72.1221 53.566V60.35H81.8158C82.7402 60.35 83.4566 61.1567 83.3473 62.0732L82.3861 70.1832C82.2946 70.9596 81.6361 71.5441 80.8546 71.5441H72.1659L72.1219 96.7028H87.2148C92.4541 96.7028 96.7016 92.455 96.7016 87.2158V35.7842C96.7019 30.5449 92.4543 26.2974 87.215 26.2974Z" fill="white" fill-opacity="0.68"/>
<path d="M61.1496 96.7012L61.1936 71.5435H61.0859V96.7012H61.1496Z" fill="white" fill-opacity="0.68"/>
<path d="M87.2152 26.2974H61.0859V60.3483H61.1506V52.5126C61.1506 43.4193 66.7043 38.4678 74.816 38.4678H81.4729C82.324 38.4678 83.0152 39.1583 83.0152 40.0101V46.8479C83.0152 47.6998 82.3247 48.3902 81.4738 48.3902L77.3884 48.3926C72.977 48.3926 72.1223 50.4886 72.1223 53.5655V60.3492H81.8159C82.7403 60.3492 83.4567 61.156 83.3474 62.0724L82.3862 70.1825C82.2947 70.9589 81.6362 71.5434 80.8547 71.5434H72.166L72.122 96.7021H87.2149C92.4542 96.7021 96.7017 92.4543 96.7017 87.215V35.7842C96.702 30.5449 92.4544 26.2974 87.2152 26.2974Z" fill="#E6E6E6"/>
</g>
<defs>
<clipPath id="clip0">
<rect width="123" height="123" fill="white"/>
</clipPath>
</defs>
</svg>
