<svg width="123" height="123" viewBox="0 0 123 123" fill="none" xmlns="http://www.w3.org/2000/svg">
<path d="M61.5 123C95.4655 123 123 95.4655 123 61.5C123 27.5345 95.4655 0 61.5 0C27.5345 0 0 27.5345 0 61.5C0 95.4655 27.5345 123 61.5 123Z" fill="#6C27B3"/>
<path d="M90.0182 31.9325C82.6701 32.8627 75.0086 32.8303 67.298 32.0961C56.5303 31.2678 40.793 26.2981 34.9949 36.2375C25.6806 52.1497 30.2746 72.5213 32.4451 90.5492L64.8135 122.911C96.1372 121.248 121.241 96.1469 122.91 64.8244L90.0182 31.9325Z" fill="#501A96"/>
<path d="M75.7287 26.2983H47.2718C35.7069 26.2983 26.2983 35.7069 26.2983 47.2718V75.7287C26.2983 87.2931 35.7069 96.7024 47.272 96.7024H75.729C87.2934 96.7024 96.7026 87.2936 96.7026 75.7287V47.2718C96.7024 35.7069 87.2936 26.2983 75.7287 26.2983ZM89.6198 75.729C89.6198 83.4006 83.4006 89.6198 75.729 89.6198H47.272C39.6004 89.6198 33.3812 83.4006 33.3812 75.729V47.272C33.3812 39.6004 39.6004 33.3809 47.272 33.3809H75.729C83.4006 33.3809 89.6198 39.6006 89.6198 47.272V75.729Z" fill="white" fill-opacity="0.68"/>
<path d="M61.5003 43.291C51.4599 43.291 43.291 51.4599 43.291 61.5003C43.291 71.5399 51.4599 79.7089 61.5003 79.7089C71.5407 79.7089 79.7089 71.5407 79.7089 61.5003C79.7089 51.4599 71.5407 43.291 61.5003 43.291ZM61.5003 72.6263C55.3553 72.6263 50.3736 67.6455 50.3736 61.5003C50.3736 55.3551 55.3553 50.3736 61.5003 50.3736C67.6453 50.3736 72.6263 55.3549 72.6263 61.5003C72.6263 67.6453 67.6453 72.6263 61.5003 72.6263Z" fill="white" fill-opacity="0.68"/>
<path d="M84.1071 43.4283C84.1071 45.8379 82.1535 47.7917 79.7437 47.7917C77.3342 47.7917 75.3804 45.8379 75.3804 43.4283C75.3804 41.0185 77.3342 39.0649 79.7437 39.0649C82.154 39.0649 84.1071 41.018 84.1071 43.4283Z" fill="#E6E6E6"/>
<path d="M75.7288 26.2983H61.3623V33.3809H75.7288C83.4004 33.3809 89.6196 39.6006 89.6196 47.272V75.729C89.6196 83.4006 83.4004 89.6198 75.7288 89.6198H61.3623V96.7024H75.7288C87.2932 96.7024 96.7022 87.2936 96.7022 75.7287V47.2718C96.7022 35.7069 87.2934 26.2983 75.7288 26.2983Z" fill="#E6E6E6"/>
<path d="M61.5002 43.291C61.4538 43.291 61.4087 43.2944 61.3623 43.2944V50.377C61.4082 50.3765 61.4538 50.3736 61.5002 50.3736C67.6452 50.3736 72.6262 55.3549 72.6262 61.5003C72.6262 67.6453 67.6454 72.6263 61.5002 72.6263C61.4538 72.6263 61.4082 72.6234 61.3623 72.6229V79.7055C61.4087 79.706 61.4538 79.7089 61.5002 79.7089C71.5406 79.7089 79.7088 71.5404 79.7088 61.5003C79.7088 51.4599 71.5406 43.291 61.5002 43.291Z" fill="#E6E6E6"/>
</svg>
