<svg width="30" height="30" viewBox="0 0 30 30" fill="none" xmlns="http://www.w3.org/2000/svg">
<g clip-path="url(#clip0)">
<path d="M23.7096 18.584C23.0954 17.9445 22.3546 17.6026 21.5695 17.6026C20.7907 17.6026 20.0435 17.9382 19.404 18.5777L17.4032 20.5722C17.2386 20.4835 17.074 20.4012 16.9157 20.3189C16.6877 20.2049 16.4725 20.0973 16.2888 19.9833C14.4147 18.793 12.7114 17.2417 11.0779 15.2345C10.2864 14.2341 9.75453 13.392 9.3683 12.5372C9.8875 12.0624 10.3687 11.5685 10.8373 11.0936C11.0145 10.9163 11.1918 10.7327 11.3691 10.5554C12.6988 9.22576 12.6988 7.50353 11.3691 6.17388L9.64056 4.44532C9.44428 4.24904 9.24166 4.04642 9.05171 3.84381C8.67181 3.45124 8.27291 3.04601 7.86135 2.66611C7.24717 2.05827 6.5127 1.73535 5.74023 1.73535C4.96776 1.73535 4.22062 2.05827 3.58745 2.66611C3.58112 2.67244 3.58112 2.67244 3.57479 2.67878L1.42201 4.85055C0.611548 5.66101 0.149334 6.64876 0.0480267 7.79479C-0.103934 9.64365 0.440592 11.3659 0.858485 12.4929C1.88422 15.2599 3.41649 17.8242 5.70224 20.5722C8.47553 23.8837 11.8123 26.4986 15.624 28.3412C17.0803 29.0313 19.0241 29.8481 21.1959 29.9874C21.3289 29.9938 21.4682 30.0001 21.5948 30.0001C23.0574 30.0001 24.2858 29.4746 25.2482 28.4298C25.2545 28.4172 25.2672 28.4108 25.2735 28.3982C25.6028 27.9993 25.9827 27.6384 26.3816 27.2521C26.6538 26.9925 26.9324 26.7203 27.2047 26.4353C27.8315 25.7832 28.1608 25.0234 28.1608 24.2446C28.1608 23.4594 27.8252 22.706 27.1857 22.0728L23.7096 18.584ZM25.9764 25.2513C25.97 25.2513 25.97 25.2576 25.9764 25.2513C25.7294 25.5172 25.4762 25.7578 25.2039 26.0238C24.7923 26.4163 24.3744 26.8279 23.9819 27.2901C23.3424 27.9739 22.5889 28.2969 21.6011 28.2969C21.5062 28.2969 21.4049 28.2969 21.3099 28.2905C19.4294 28.1702 17.6818 27.4357 16.3712 26.8089C12.7874 25.074 9.64056 22.611 7.02557 19.4895C4.86645 16.8871 3.42283 14.4811 2.46674 11.8977C1.87789 10.3211 1.66261 9.09279 1.75759 7.93409C1.8209 7.19328 2.10583 6.57911 2.63136 6.05357L4.79047 3.89446C5.10073 3.6032 5.42998 3.44491 5.75289 3.44491C6.15179 3.44491 6.47471 3.68552 6.67732 3.88813C6.68365 3.89446 6.68998 3.90079 6.69632 3.90713C7.08255 4.26803 7.44979 4.6416 7.83602 5.0405C8.03231 5.24312 8.23492 5.44573 8.43754 5.65468L10.1661 7.38323C10.8373 8.05439 10.8373 8.6749 10.1661 9.34606C9.98247 9.52968 9.80518 9.7133 9.62156 9.89059C9.0897 10.4351 8.58316 10.9417 8.03231 11.4355C8.01964 11.4482 8.00698 11.4545 8.00065 11.4672C7.45612 12.0117 7.55743 12.5436 7.6714 12.9045C7.67773 12.9235 7.68406 12.9425 7.69039 12.9615C8.13995 14.0505 8.77312 15.0763 9.73553 16.2983L9.74187 16.3046C11.4894 18.4574 13.3319 20.1353 15.3644 21.4206C15.624 21.5852 15.89 21.7182 16.1432 21.8448C16.3712 21.9588 16.5864 22.0665 16.7701 22.1804C16.7954 22.1931 16.8207 22.2121 16.846 22.2248C17.0613 22.3324 17.2639 22.383 17.4729 22.383C17.9984 22.383 18.3277 22.0538 18.4353 21.9462L20.6007 19.7807C20.816 19.5654 21.1579 19.3058 21.5568 19.3058C21.9494 19.3058 22.2723 19.5528 22.4686 19.768C22.4749 19.7744 22.4749 19.7744 22.4813 19.7807L25.97 23.2695C26.6222 23.9153 26.6222 24.5801 25.9764 25.2513Z" fill="white"/>
<path d="M16.2129 7.13611C17.8718 7.4147 19.3787 8.19983 20.5817 9.40286C21.7848 10.6059 22.5636 12.1128 22.8485 13.7717C22.9181 14.1896 23.279 14.4809 23.6906 14.4809C23.7413 14.4809 23.7856 14.4746 23.8362 14.4682C24.3048 14.3922 24.615 13.949 24.5391 13.4805C24.1971 11.4733 23.2474 9.64346 21.7974 8.1935C20.3475 6.74354 18.5176 5.79379 16.5105 5.45187C16.0419 5.37589 15.605 5.68615 15.5227 6.14836C15.4404 6.61058 15.7443 7.06013 16.2129 7.13611Z" fill="white"/>
<path d="M29.9654 13.2336C29.4019 9.92848 27.8443 6.92092 25.4509 4.52754C23.0575 2.13415 20.05 0.576553 16.7448 0.0130316C16.2826 -0.0692806 15.8457 0.247305 15.7634 0.709519C15.6874 1.17807 15.9977 1.61495 16.4662 1.69727C19.4168 2.19747 22.1078 3.59678 24.2479 5.73056C26.388 7.87068 27.781 10.5617 28.2812 13.5122C28.3508 13.9301 28.7117 14.2214 29.1233 14.2214C29.1739 14.2214 29.2183 14.215 29.2689 14.2087C29.7311 14.1391 30.0477 13.6958 29.9654 13.2336Z" fill="white"/>
</g>
<defs>
<clipPath id="clip0">
<rect width="30" height="30" fill="white"/>
</clipPath>
</defs>
</svg>
