<svg width="123" height="123" viewBox="0 0 123 123" fill="none" xmlns="http://www.w3.org/2000/svg">
<path d="M61.5 121.559C94.6694 121.559 121.559 94.6694 121.559 61.5C121.559 28.3306 94.6694 1.44141 61.5 1.44141C28.3306 1.44141 1.44141 28.3306 1.44141 61.5C1.44141 94.6694 28.3306 121.559 61.5 121.559Z" fill="#CCFFFF"/>
<path opacity="0.49" d="M121.559 61.5001C121.559 61.4352 121.556 61.3708 121.556 61.306L79.5354 19.3587C79.0605 18.8863 78.4174 18.6217 77.7476 18.6231H64.2075C63.8765 18.622 63.5486 18.6862 63.2424 18.8119C62.9363 18.9376 62.6579 19.1223 62.4231 19.3556C62.1884 19.5889 62.0019 19.8662 61.8743 20.1716C61.7467 20.477 61.6805 20.8045 61.6795 21.1354V56.829L53.8099 48.9599C53.3351 48.4874 52.6923 48.2227 52.0226 48.2238C36.4448 48.2238 23.771 60.8188 23.771 76.3014C23.7707 79.9925 24.5027 83.647 25.9247 87.0532C27.3466 90.4594 29.4303 93.5496 32.055 96.1448L57.3226 121.412C58.703 121.508 60.0954 121.559 61.5 121.559C94.6694 121.559 121.559 94.6695 121.559 61.5001Z" fill="url(#paint0_linear)"/>
<path fill-rule="evenodd" clip-rule="evenodd" d="M82.1375 23.0132C82.4685 23.012 82.7965 23.0761 83.1027 23.2017C83.4089 23.3273 83.6874 23.5121 83.9222 23.7454C84.1569 23.9788 84.3434 24.2561 84.471 24.5615C84.5985 24.867 84.6646 25.1946 84.6654 25.5256C84.6654 34.5262 92.0339 41.8488 101.091 41.8488C101.759 41.8467 102.401 42.1103 102.875 42.5814C103.349 43.0526 103.617 43.6928 103.619 44.3611V57.8172C103.618 58.1481 103.552 58.4757 103.424 58.7811C103.297 59.0865 103.11 59.3637 102.875 59.597C102.64 59.8303 102.362 60.0151 102.056 60.1408C101.75 60.2665 101.422 60.3306 101.091 60.3295C95.3658 60.3428 89.7253 58.9492 84.6652 56.2712V80.6911C84.6652 96.172 71.9897 108.767 56.4122 108.767C40.8347 108.767 28.1606 96.172 28.1606 80.6911C28.1606 65.2101 40.8344 52.6132 56.4122 52.6132C57.0804 52.6117 57.7219 52.8755 58.1959 53.3465C58.6698 53.8175 58.9375 54.4574 58.9402 55.1256V68.5816C58.9392 68.9125 58.873 69.2401 58.7454 69.5454C58.6178 69.8508 58.4313 70.1281 58.1966 70.3614C57.9618 70.5947 57.6834 70.7794 57.3773 70.9051C57.0711 71.0308 56.7432 71.095 56.4122 71.0939C54.5166 71.1058 52.667 71.6788 51.0966 72.7405C49.5263 73.8023 48.3055 75.3053 47.5883 77.06C46.8711 78.8148 46.6896 80.7426 47.0667 82.6003C47.4438 84.458 48.3626 86.1625 49.7072 87.4987C51.0518 88.8349 52.762 89.743 54.622 90.1085C56.4821 90.4739 58.4087 90.2803 60.1589 89.5522C61.9091 88.824 63.4045 87.5938 64.4564 86.0168C65.5083 84.4399 66.0696 82.5867 66.0696 80.6911V25.5256C66.0707 25.1946 66.1369 24.8671 66.2645 24.5617C66.3921 24.2563 66.5786 23.9791 66.8134 23.7458C67.0482 23.5125 67.3266 23.3277 67.6328 23.202C67.9389 23.0763 68.2669 23.0122 68.5979 23.0132H82.1375Z" fill="#FF0B53"/>
<path fill-rule="evenodd" clip-rule="evenodd" d="M77.7473 18.6231C78.0783 18.6219 78.4063 18.6859 78.7126 18.8116C79.0188 18.9372 79.2973 19.122 79.532 19.3553C79.7668 19.5886 79.9533 19.8659 80.0809 20.1714C80.2084 20.4768 80.2745 20.8044 80.2753 21.1354C80.2753 30.1363 87.6436 37.4589 96.7006 37.4589C97.0316 37.4578 97.3595 37.522 97.6657 37.6477C97.9718 37.7734 98.2502 37.9582 98.485 38.1915C98.7197 38.4248 98.9062 38.702 99.0338 39.0074C99.1614 39.3128 99.2276 39.6403 99.2286 39.9713V53.4282C99.2276 53.7592 99.1614 54.0867 99.0338 54.392C98.9062 54.6974 98.7197 54.9746 98.485 55.2079C98.2502 55.4412 97.9718 55.626 97.6657 55.7516C97.3595 55.8773 97.0316 55.9414 96.7006 55.9404C90.9758 55.9537 85.3353 54.5602 80.2753 51.8823V76.3009C80.2753 91.7819 67.5998 104.377 52.0223 104.377C36.4448 104.377 23.771 91.7819 23.771 76.3009C23.771 60.82 36.4446 48.2233 52.0226 48.2233C52.6909 48.2215 53.3326 48.4851 53.8066 48.9562C54.2807 49.4273 54.5483 50.0674 54.5505 50.7357V64.1907C54.5495 64.5217 54.4833 64.8492 54.3558 65.1546C54.2282 65.46 54.0417 65.7372 53.8069 65.9705C53.5722 66.2038 53.2938 66.3886 52.9876 66.5143C52.6814 66.64 52.3535 66.7041 52.0226 66.7031C50.127 66.715 48.2775 67.288 46.7072 68.3497C45.1369 69.4115 43.9162 70.9145 43.1991 72.6692C42.4819 74.4239 42.3005 76.3516 42.6776 78.2093C43.0547 80.067 43.9735 81.7714 45.318 83.1075C46.6626 84.4437 48.3728 85.3517 50.2328 85.7171C52.0928 86.0826 54.0193 85.889 55.7695 85.1608C57.5196 84.4327 59.0149 83.2025 60.0668 81.6256C61.1187 80.0487 61.68 78.1955 61.68 76.3V21.1354C61.682 20.4672 61.9494 19.8271 62.4234 19.3559C62.8973 18.8848 63.539 18.6211 64.2072 18.6231H77.7473Z" fill="#00F0E9"/>
<path d="M80.2757 76.301V51.8814C85.3356 54.5593 90.9761 55.9528 96.701 55.9395C97.3692 55.9417 98.0109 55.6783 98.485 55.2074C98.959 54.7365 99.2267 54.0965 99.2289 53.4283V41.7411C96.8696 41.4738 94.596 40.6991 92.5643 39.4702C90.5326 38.2412 88.791 36.5872 87.4589 34.6216C85.5153 33.3084 83.8776 31.5918 82.6573 29.5885C81.437 27.5853 80.6629 25.3426 80.3876 23.0132H68.5976C68.2666 23.0121 67.9387 23.0763 67.6325 23.2019C67.3263 23.3276 67.0479 23.5124 66.8131 23.7457C66.5783 23.979 66.3918 24.2563 66.2642 24.5617C66.1366 24.867 66.0704 25.1946 66.0694 25.5256V80.6911C66.0538 82.8671 65.3044 84.9741 63.9424 86.6713C62.5805 88.3684 60.6858 89.5564 58.5648 90.0429C56.4438 90.5294 54.2208 90.2859 52.2553 89.352C50.2899 88.4181 48.6971 86.8483 47.7347 84.8966C45.7844 83.9409 44.2165 82.3511 43.2879 80.3878C42.3592 78.4245 42.1248 76.204 42.6231 74.09C43.1214 71.9761 44.3229 70.094 46.0307 68.7522C47.7385 67.4103 49.8513 66.6882 52.0231 66.7041C52.3541 66.7051 52.6821 66.6409 52.9883 66.5151C53.2944 66.3893 53.5728 66.2044 53.8075 65.971C54.0422 65.7377 54.2287 65.4603 54.3562 65.1549C54.4837 64.8494 54.5498 64.5218 54.5506 64.1908V52.6759C39.8377 53.632 28.1611 65.8304 28.1611 80.6911C28.1572 87.0433 30.3264 93.2058 34.3085 98.1549C39.3302 102.19 45.5809 104.385 52.0227 104.377C67.6002 104.377 80.2757 91.782 80.2757 76.301Z" fill="black"/>
<defs>
<linearGradient id="paint0_linear" x1="39.9296" y1="41.8492" x2="103.008" y2="104.928" gradientUnits="userSpaceOnUse">
<stop stop-color="#1D1D1B"/>
<stop offset="0.369" stop-color="#1D1D1B" stop-opacity="0.856"/>
<stop offset="0.75" stop-color="#1D1D1B" stop-opacity="0.429"/>
<stop offset="1" stop-color="#1D1D1B" stop-opacity="0"/>
</linearGradient>
</defs>
</svg>
